<svg width="1280" height="640" viewBox="0 0 1280 640" fill="none" xmlns="http://www.w3.org/2000/svg">
<g clip-path="url(#clip0_2_9)">
<path d="M142.129 250.397C150.275 245.269 162.556 246.253 169.871 251.693L161.481 240.711C154.73 232.039 157.148 222.656 166.785 216.568C176.423 210.503 203.731 226.809 203.731 226.809C196.919 218.051 198.193 206.952 207.917 200.809C217.641 194.689 231.057 196.804 237.869 205.578L328.176 320.476L316.667 420.972L220.614 389.422L136.833 277.545C129.961 268.733 132.335 256.579 142.129 250.397Z" fill="#EF9645"/>
<path d="M123.357 314.317C123.357 314.317 113.546 301.438 127.855 292.61C142.146 283.782 151.948 296.653 151.948 296.653L197.457 356.428C199.025 354.071 200.741 351.745 202.657 349.45L139.494 266.5C139.494 266.5 129.692 253.629 143.992 244.801C158.283 235.973 168.085 248.844 168.085 248.844L227.495 326.876C229.705 325.253 231.967 323.621 234.299 322.021L165.425 231.547C165.425 231.547 155.623 218.676 169.923 209.848C184.214 201.019 194.016 213.891 194.016 213.891L262.89 304.349C265.421 302.952 267.925 301.742 270.439 300.462L206.063 215.912C206.063 215.912 196.261 203.041 210.552 194.213C224.843 185.385 234.645 198.256 234.645 198.256L302.713 287.661L313.061 301.258C270.179 327.75 266.097 377.589 290.597 409.771C295.494 416.211 302.644 411.801 302.644 411.801C273.238 373.171 282.217 329.764 325.108 303.28L312.463 246.284C312.463 246.284 307.74 231.266 324.406 227.004C341.081 222.75 345.813 237.768 345.813 237.768L360.416 276.827C366.205 292.313 372.367 307.745 380.523 322.341C403.55 363.555 389.796 414.775 346.376 441.602C299.013 470.85 234.264 459.977 201.781 417.327L123.357 314.317Z" fill="#FFDC5D"/>
<path d="M204 429.106C169.333 429.106 134.303 397.556 134.303 366.333C134.303 362.017 130.793 358.528 126 358.528C121.207 358.528 116.969 362.017 116.969 366.333C116.969 413.167 152 444.717 204 444.717C208.793 444.717 212.667 440.9 212.667 436.583C212.667 432.267 208.793 429.106 204 429.106Z" fill="#5DADEC"/>
<path d="M160.667 444.389C134.667 444.389 117.333 428.778 117.333 405.361C117.333 401.045 113.459 397.556 108.667 397.556C103.874 397.556 100 401.045 100 405.361C100 436.583 126 460 160.667 460C165.459 460 169.333 456.511 169.333 452.194C169.333 447.878 165.459 444.389 160.667 444.389ZM308 194.611C303.216 194.611 299.333 198.108 299.333 202.417C299.333 206.725 303.216 210.222 308 210.222C342.667 210.222 377.333 238.236 377.333 272.667C377.333 276.975 381.216 280.472 386 280.472C390.784 280.472 394.667 276.975 394.667 272.667C394.667 229.627 360 194.611 308 194.611Z" fill="#5DADEC"/>
<path d="M351.333 179.328C346.549 179.328 342.667 182.497 342.667 186.806C342.667 191.114 346.549 194.939 351.333 194.939C377.333 194.939 394.303 212.306 394.303 233.639C394.303 237.948 398.541 241.444 403.333 241.444C408.126 241.444 411.636 237.948 411.636 233.639C411.636 203.689 386 179.328 351.333 179.328Z" fill="#5DADEC"/>
</g>
<path d="M549.136 440.88C537.616 440.88 526.192 438.864 514.864 434.832C503.536 430.8 495.376 426.288 490.384 421.296L505.648 393.936C509.68 397.584 515.92 401.424 524.368 405.456C533.008 409.296 541.264 411.216 549.136 411.216C559.312 411.216 567.568 408.816 573.904 404.016C580.432 399.216 583.696 392.592 583.696 384.144C583.696 377.616 581.968 371.952 578.512 367.152C575.056 362.352 570.832 358.416 565.84 355.344C560.848 352.08 553.744 348.144 544.528 343.536C533.584 338.16 526.096 334.128 522.064 331.44C503.44 318.96 494.128 301.68 494.128 279.6C494.128 261.36 500.176 247.44 512.272 237.84C524.368 228.048 539.632 223.152 558.064 223.152C577.84 223.152 594.64 228.816 608.464 240.144L593.2 266.352C589.552 262.512 584.368 259.248 577.648 256.56C571.12 253.68 564.112 252.24 556.624 252.24C547.024 252.24 539.44 254.448 533.872 258.864C528.496 263.088 525.808 269.424 525.808 277.872C525.808 283.824 527.536 289.2 530.992 294C534.448 298.608 538.768 302.64 543.952 306.096C549.328 309.552 556.528 313.776 565.552 318.768C574.192 323.568 580.816 327.408 585.424 330.288C590.032 332.976 594.352 336.24 598.384 340.08C603.952 345.072 608.464 351.024 611.92 357.936C615.376 364.848 617.104 372.432 617.104 380.688C617.104 393.552 614.128 404.496 608.176 413.52C602.416 422.544 594.352 429.36 583.984 433.968C573.808 438.576 562.192 440.88 549.136 440.88ZM708.225 440.88C696.321 440.88 685.281 438.096 675.105 432.528C665.121 426.768 657.057 418.704 650.913 408.336C644.961 397.776 641.985 385.488 641.985 371.472C641.985 357.648 644.577 345.552 649.761 335.184C655.137 324.816 662.721 316.752 672.513 310.992C682.305 305.232 693.825 302.352 707.073 302.352C714.753 302.352 721.953 303.696 728.673 306.384C735.393 309.072 741.057 312.432 745.665 316.464C750.273 320.304 753.345 324.144 754.881 327.984L755.457 305.808H785.121V438H755.745L755.169 414.672C751.905 421.584 745.953 427.728 737.313 433.104C728.673 438.288 718.977 440.88 708.225 440.88ZM713.409 414.96C724.353 414.96 733.569 411.216 741.057 403.728C748.545 396.048 752.289 386.064 752.289 373.776V371.76C752.289 363.504 750.561 356.112 747.105 349.584C743.649 343.056 738.945 337.968 732.993 334.32C727.041 330.672 720.513 328.848 713.409 328.848C701.121 328.848 691.617 332.88 684.897 340.944C678.177 348.816 674.817 359.088 674.817 371.76C674.817 384.624 678.081 395.088 684.609 403.152C691.329 411.024 700.929 414.96 713.409 414.96ZM829.54 226.32H860.356V438H829.54V226.32ZM882.986 305.808H918.411L946.923 365.424L956.139 389.328L965.355 365.424L993.579 305.808H1028.14L958.731 438H952.683L882.986 305.808ZM1107.13 440.88C1091.39 440.88 1078.24 437.808 1067.68 431.664C1057.12 425.328 1049.34 416.976 1044.35 406.608C1039.36 396.048 1036.86 384.528 1036.86 372.048C1036.86 358.032 1039.74 345.744 1045.5 335.184C1051.45 324.624 1059.61 316.56 1069.98 310.992C1080.35 305.232 1092.06 302.352 1105.12 302.352C1125.47 302.352 1140.54 308.016 1150.33 319.344C1160.32 330.48 1165.31 346.224 1165.31 366.576C1165.31 371.76 1165.02 377.136 1164.44 382.704H1069.4C1071.52 394.416 1075.64 402.864 1081.79 408.048C1088.12 413.232 1096.86 415.824 1108 415.824C1117.21 415.824 1124.8 415.056 1130.75 413.52C1136.7 411.984 1142.17 409.872 1147.16 407.184L1156.67 429.36C1151.87 432.432 1145.34 435.12 1137.08 437.424C1128.83 439.728 1118.84 440.88 1107.13 440.88ZM1135.07 361.104C1135.26 349.2 1132.67 340.848 1127.29 336.048C1121.92 331.056 1114.24 328.56 1104.25 328.56C1084.09 328.56 1072.48 339.408 1069.4 361.104H1135.07Z" fill="#5DADEC"/>
<defs>
<clipPath id="clip0_2_9">
<rect width="312" height="281" fill="white" transform="translate(100 179)"/>
</clipPath>
</defs>
</svg>
