<svg width="1" height="640" viewBox="0 0 1 640" fill="none" xmlns="http://www.w3.org/2000/svg">
<g clip-path="url(#clip0_2_9)">
<path d="M142.129 250.397C150.275 245.269 162.556 246.253 169.871 251.693L161.481 240.711C154.73 232.039 157.148 222.656 166.785 216.568C176.423 210.503 203.731 226.809 203.731 226.809C196.919 218.051 198.193 206.952 207.917 200.809C217.641 194.689 231.057 196.804 237.869 205.578L328.176 320.476L316.667 420.972L220.614 389.422L136.833 277.545C129.961 268.733 132.335 256.579 142.129 250.397Z" fill="#EF9645"/>
<path d="M123.357 314.317C123.357 314.317 113.546 301.438 127.855 292.61C142.146 283.782 151.948 296.653 151.948 296.653L197.457 356.428C199.025 354.071 200.741 351.745 202.657 349.45L139.494 266.5C139.494 266.5 129.692 253.629 143.992 244.801C158.283 235.973 168.085 248.844 168.085 248.844L227.495 326.876C229.705 325.253 231.967 323.621 234.299 322.021L165.425 231.547C165.425 231.547 155.623 218.676 169.923 209.848C184.214 201.019 194.016 213.891 194.016 213.891L262.89 304.349C265.421 302.952 267.925 301.742 270.439 300.462L206.063 215.912C206.063 215.912 196.261 203.041 210.552 194.213C224.843 185.385 234.645 198.256 234.645 198.256L302.713 287.661L313.061 301.258C270.179 327.75 266.097 377.589 290.597 409.771C295.494 416.211 302.644 411.801 302.644 411.801C273.238 373.171 282.217 329.764 325.108 303.28L312.463 246.284C312.463 246.284 307.74 231.266 324.406 227.004C341.081 222.75 345.813 237.768 345.813 237.768L360.416 276.827C366.205 292.313 372.367 307.745 380.523 322.341C403.55 363.555 389.796 414.775 346.376 441.602C299.013 470.85 234.264 459.977 201.781 417.327L123.357 314.317Z" fill="#FFDC5D"/>
<path d="M204 429.106C169.333 429.106 134.303 397.556 134.303 366.333C134.303 362.017 130.793 358.528 126 358.528C121.207 358.528 116.969 362.017 116.969 366.333C116.969 413.167 152 444.717 204 444.717C208.793 444.717 212.667 440.9 212.667 436.583C212.667 432.267 208.793 429.106 204 429.106Z" fill="#5DADEC"/>
<path d="M160.667 444.389C134.667 444.389 117.333 428.778 117.333 405.361C117.333 401.045 113.459 397.556 108.667 397.556C103.874 397.556 100 401.045 100 405.361C100 436.583 126 460 160.667 460C165.459 460 169.333 456.511 169.333 452.194C169.333 447.878 165.459 444.389 160.667 444.389ZM308 194.611C303.216 194.611 299.333 198.108 299.333 202.417C299.333 206.725 303.216 210.222 308 210.222C342.667 210.222 377.333 238.236 377.333 272.667C377.333 276.975 381.216 280.472 386 280.472C390.784 280.472 394.667 276.975 394.667 272.667C394.667 229.627 360 194.611 308 194.611Z" fill="#5DADEC"/>
<path d="M351.333 179.328C346.549 179.328 342.667 182.497 342.667 186.806C342.667 191.114 346.549 194.939 351.333 194.939C377.333 194.939 394.303 212.306 394.303 233.639C394.303 237.948 398.541 241.444 403.333 241.444C408.126 241.444 411.636 237.948 411.636 233.639C411.636 203.689 386 179.328 351.333 179.328Z" fill="#5DADEC"/>
</g>
<defs>
<clipPath id="clip0_2_9">
<rect width="312" height="281" fill="white" transform="translate(100 179)"/>
</clipPath>
</defs>
</svg>
